<svg width="14" height="13" viewBox="0 0 14 13" fill="none" xmlns="http://www.w3.org/2000/svg">
<path d="M7 1.50001C5.91256 1.50024 4.84958 1.82283 3.94542 2.427C3.04126 3.03118 2.33649 3.88982 1.92018 4.89443C1.50387 5.89903 1.39471 7.00449 1.60648 8.07112C1.81826 9.13774 2.34148 10.1177 3.11 10.887C3.25057 11.0278 3.32943 11.2187 3.32924 11.4177C3.32906 11.6167 3.24983 11.8074 3.109 11.948C2.96817 12.0886 2.77727 12.1674 2.5783 12.1672C2.37932 12.1671 2.18857 12.0878 2.048 11.947C1.06967 10.9678 0.403621 9.72049 0.13404 8.3628C-0.13554 7.00511 0.00345564 5.59797 0.533456 4.31926C1.06346 3.04054 1.96067 1.94767 3.11167 1.17878C4.26268 0.409894 5.61581 -0.000488281 7 -0.000488281C8.3842 -0.000488281 9.73733 0.409894 10.8883 1.17878C12.0393 1.94767 12.9365 3.04054 13.4665 4.31926C13.9966 5.59797 14.1355 7.00511 13.866 8.3628C13.5964 9.72049 12.9303 10.9678 11.952 11.947C11.8829 12.0187 11.8001 12.0758 11.7086 12.1152C11.6172 12.1545 11.5187 12.1753 11.4192 12.1762C11.3196 12.1771 11.2208 12.1582 11.1286 12.1205C11.0364 12.0828 10.9527 12.0272 10.8822 11.9568C10.8118 11.8864 10.756 11.8027 10.7183 11.7106C10.6805 11.6184 10.6615 11.5196 10.6623 11.4201C10.6631 11.3205 10.6838 11.2221 10.723 11.1305C10.7623 11.039 10.8194 10.9562 10.891 10.887C11.6596 10.1176 12.1828 9.13759 12.3946 8.07087C12.6063 7.00416 12.4971 5.89861 12.0806 4.89396C11.6642 3.88932 10.9593 3.03069 10.055 2.42659C9.15064 1.82249 8.08753 1.50004 7 1.50001ZM7 5.50001C6.60218 5.50001 6.22065 5.65804 5.93934 5.93935C5.65804 6.22065 5.5 6.60218 5.5 7.00001C5.5 7.39783 5.65804 7.77936 5.93934 8.06067C6.22065 8.34197 6.60218 8.50001 7 8.50001C7.39783 8.50001 7.77936 8.34197 8.06066 8.06067C8.34197 7.77936 8.5 7.39783 8.5 7.00001C8.5 6.60218 8.34197 6.22065 8.06066 5.93935C7.77936 5.65804 7.39783 5.50001 7 5.50001ZM4.25 7.00001C4.24999 6.54785 4.36147 6.10266 4.57456 5.70387C4.78766 5.30508 5.0958 4.96498 5.4717 4.7137C5.8476 4.46242 6.27967 4.3077 6.72963 4.26324C7.1796 4.21879 7.63358 4.28597 8.05139 4.45884C8.4692 4.63171 8.83793 4.90493 9.12494 5.25432C9.41196 5.6037 9.60839 6.01847 9.69686 6.46188C9.78532 6.9053 9.76308 7.36369 9.63211 7.79647C9.50115 8.22924 9.26549 8.62304 8.946 8.94301C8.80544 9.08384 8.72657 9.27474 8.72676 9.47371C8.72695 9.67269 8.80617 9.86344 8.947 10.004C9.08783 10.1446 9.27873 10.2234 9.47771 10.2232C9.67669 10.2231 9.86744 10.1438 10.008 10.003C10.6017 9.40837 11.0059 8.65109 11.1693 7.82684C11.3328 7.0026 11.2482 6.1484 10.9264 5.37219C10.6045 4.59599 10.0598 3.93261 9.361 3.4659C8.66223 2.99919 7.8408 2.7501 7.0005 2.7501C6.16021 2.7501 5.33877 2.99919 4.64001 3.4659C3.94124 3.93261 3.3965 4.59599 3.07464 5.37219C2.75277 6.1484 2.66823 7.0026 2.83169 7.82684C2.99515 8.65109 3.39928 9.40837 3.993 10.003C4.06167 10.0767 4.14447 10.1358 4.23646 10.1768C4.32846 10.2178 4.42778 10.2398 4.52848 10.2416C4.62918 10.2434 4.72921 10.2248 4.8226 10.1871C4.91599 10.1494 5.00082 10.0933 5.07204 10.022C5.14326 9.95083 5.1994 9.86599 5.23713 9.7726C5.27485 9.67921 5.29337 9.57919 5.29159 9.47848C5.28982 9.37778 5.26778 9.27847 5.22678 9.18647C5.18579 9.09447 5.12669 9.01167 5.053 8.94301C4.79778 8.68799 4.59546 8.38506 4.45766 8.05162C4.31985 7.71818 4.24928 7.3608 4.25 7.00001Z" fill="#53B9EA"/>
</svg>
