<svg width="16" height="16" viewBox="0 0 16 16" fill="none" xmlns="http://www.w3.org/2000/svg">
<path d="M8 3.50001C6.91256 3.50024 5.84958 3.82283 4.94542 4.427C4.04126 5.03118 3.33649 5.88982 2.92018 6.89443C2.50387 7.89903 2.39471 9.00449 2.60648 10.0711C2.81826 11.1377 3.34148 12.1177 4.11 12.887C4.25057 13.0278 4.32943 13.2187 4.32924 13.4177C4.32906 13.6167 4.24983 13.8074 4.109 13.948C3.96817 14.0886 3.77727 14.1674 3.5783 14.1672C3.37932 14.1671 3.18857 14.0878 3.048 13.947C2.06967 12.9678 1.40362 11.7205 1.13404 10.3628C0.86446 9.00511 1.00346 7.59797 1.53346 6.31926C2.06346 5.04054 2.96067 3.94767 4.11167 3.17878C5.26268 2.40989 6.61581 1.99951 8 1.99951C9.3842 1.99951 10.7373 2.40989 11.8883 3.17878C13.0393 3.94767 13.9365 5.04054 14.4665 6.31926C14.9966 7.59797 15.1355 9.00511 14.866 10.3628C14.5964 11.7205 13.9303 12.9678 12.952 13.947C12.8829 14.0187 12.8001 14.0758 12.7086 14.1152C12.6172 14.1545 12.5187 14.1753 12.4192 14.1762C12.3196 14.1771 12.2208 14.1582 12.1286 14.1205C12.0364 14.0828 11.9527 14.0272 11.8822 13.9568C11.8118 13.8864 11.756 13.8027 11.7183 13.7106C11.6805 13.6184 11.6615 13.5196 11.6623 13.4201C11.6631 13.3205 11.6838 13.2221 11.723 13.1305C11.7623 13.039 11.8194 12.9562 11.891 12.887C12.6596 12.1176 13.1828 11.1376 13.3946 10.0709C13.6063 9.00416 13.4971 7.89861 13.0806 6.89396C12.6642 5.88932 11.9593 5.03069 11.055 4.42659C10.1506 3.82249 9.08753 3.50004 8 3.50001ZM8 7.50001C7.60218 7.50001 7.22065 7.65804 6.93934 7.93935C6.65804 8.22065 6.5 8.60218 6.5 9.00001C6.5 9.39783 6.65804 9.77936 6.93934 10.0607C7.22065 10.342 7.60218 10.5 8 10.5C8.39783 10.5 8.77936 10.342 9.06066 10.0607C9.34197 9.77936 9.5 9.39783 9.5 9.00001C9.5 8.60218 9.34197 8.22065 9.06066 7.93935C8.77936 7.65804 8.39783 7.50001 8 7.50001ZM5.25 9.00001C5.24999 8.54785 5.36147 8.10266 5.57456 7.70387C5.78766 7.30508 6.0958 6.96498 6.4717 6.7137C6.8476 6.46242 7.27967 6.3077 7.72963 6.26324C8.1796 6.21879 8.63358 6.28597 9.05139 6.45884C9.4692 6.63171 9.83793 6.90493 10.1249 7.25432C10.412 7.6037 10.6084 8.01847 10.6969 8.46188C10.7853 8.9053 10.7631 9.36369 10.6321 9.79647C10.5011 10.2292 10.2655 10.623 9.946 10.943C9.80544 11.0838 9.72657 11.2747 9.72676 11.4737C9.72695 11.6727 9.80617 11.8634 9.947 12.004C10.0878 12.1446 10.2787 12.2234 10.4777 12.2232C10.6767 12.2231 10.8674 12.1438 11.008 12.003C11.6017 11.4084 12.0059 10.6511 12.1693 9.82684C12.3328 9.0026 12.2482 8.1484 11.9264 7.37219C11.6045 6.59599 11.0598 5.93261 10.361 5.4659C9.66223 4.99919 8.8408 4.7501 8.0005 4.7501C7.16021 4.7501 6.33877 4.99919 5.64001 5.4659C4.94124 5.93261 4.3965 6.59599 4.07464 7.37219C3.75277 8.1484 3.66823 9.0026 3.83169 9.82684C3.99515 10.6511 4.39928 11.4084 4.993 12.003C5.06167 12.0767 5.14447 12.1358 5.23646 12.1768C5.32846 12.2178 5.42778 12.2398 5.52848 12.2416C5.62918 12.2434 5.72921 12.2248 5.8226 12.1871C5.91599 12.1494 6.00082 12.0933 6.07204 12.022C6.14326 11.9508 6.1994 11.866 6.23713 11.7726C6.27485 11.6792 6.29337 11.5792 6.29159 11.4785C6.28982 11.3778 6.26778 11.2785 6.22678 11.1865C6.18579 11.0945 6.12669 11.0117 6.053 10.943C5.79778 10.688 5.59546 10.3851 5.45766 10.0516C5.31985 9.71818 5.24928 9.3608 5.25 9.00001Z" fill="#363448"/>
</svg>
