<svg width="12" height="13" viewBox="0 0 12 13" fill="none" xmlns="http://www.w3.org/2000/svg">
<path d="M9.56014 0H2.43701V1.17675H0V2.92195C0 4.17573 1.09324 5.19575 2.43701 5.19575H2.47972C2.70463 6.55844 3.81779 7.64487 5.24697 7.93175V9.81508H4.37295C4.10249 9.81508 3.88612 10.0196 3.88612 10.2693V10.867H3.14021V13H8.85979V10.867H8.11388V10.2693C8.11388 10.017 7.89466 9.81508 7.62705 9.81508H6.75302V7.93175C8.18505 7.64487 9.29537 6.55578 9.52028 5.19575H9.56299C10.9068 5.19575 12 4.17573 12 2.92195V1.17675H9.56299V0H9.56014ZM2.43701 4.04557C1.77367 4.04557 1.23274 3.54087 1.23274 2.92195V2.32693H2.43701V4.04557ZM7.61566 3.23273L6.88399 3.80915L7.11174 4.67777C7.15445 4.8398 6.9637 4.96996 6.80996 4.88231L5.99858 4.40948L5.18434 4.87965C5.03061 4.96731 4.83986 4.8398 4.88256 4.67511L5.11032 3.8065L4.38149 3.23273C4.24484 3.12383 4.31601 2.91398 4.49537 2.90335L5.44911 2.8396L5.81352 2.01083C5.88185 1.85411 6.11815 1.85411 6.18648 2.01083L6.54804 2.83694L7.50178 2.90069C7.68114 2.91398 7.75231 3.12383 7.61566 3.23273ZM10.7616 2.32693V2.92195C10.7616 3.54087 10.2235 4.04557 9.56014 4.04557V2.32693H10.7616Z" fill="#363448"/>
</svg>
