<svg width="27" height="27" viewBox="0 0 27 27" fill="none" xmlns="http://www.w3.org/2000/svg">
<path d="M12.3154 21.2501C12.6863 21.9784 13.7268 21.9784 14.0976 21.2501L17.792 13.9951C18.0624 13.4642 17.8115 12.8161 17.254 12.6057L14.3958 11.5269C13.733 11.2768 13.003 11.2692 12.3352 11.5057L9.189 12.6195C8.61957 12.8211 8.35751 13.4777 8.63162 14.016L12.3154 21.2501Z" fill="#53B9EA"/>
<path d="M16 7.5C16 8.88071 14.8807 10 13.5 10C12.1193 10 11 8.88071 11 7.5C11 6.11929 12.1193 5 13.5 5C14.8807 5 16 6.11929 16 7.5Z" fill="#53B9EA"/>
</svg>
